HIERARCHY
ROOT Hips
{
    OFFSET 0.000000 0.000000 0.000000
    CHANNELS 6 Xposition Yposition Zposition Zrotation Xrotation Yrotation
    JOINT Spine
    {
        OFFSET 0.000001 7.974411 0.000018
        CHANNELS 3 Zrotation Xrotation Yrotation
        JOINT Spine1
        {
            OFFSET -0.000000 23.666340 0.000011
            CHANNELS 3 Zrotation Xrotation Yrotation
            JOINT Neck
            {
                OFFSET 0.000001 26.488382 -0.000016
                CHANNELS 3 Zrotation Xrotation Yrotation
                JOINT Head
                {
                    OFFSET -0.000000 16.189651 2.035183
                    CHANNELS 3 Zrotation Xrotation Yrotation
                    End Site
                    {
                        OFFSET 0.000000 20.351660 0.000000
                    }
                }
            }
            JOINT LeftShoulder
            {
                OFFSET 4.036570 20.304853 -0.371922
                CHANNELS 3 Zrotation Xrotation Yrotation
                JOINT LeftArm
                {
                    OFFSET 12.502551 0.000002 -0.000005
                    CHANNELS 3 Zrotation Xrotation Yrotation
                    JOINT LeftForeArm
                    {
                        OFFSET 31.806904 0.000000 0.000008
                        CHANNELS 3 Zrotation Xrotation Yrotation
                        JOINT LeftHand
                        {
                            OFFSET 24.843227 0.000001 -0.000003
                            CHANNELS 3 Zrotation Xrotation Yrotation
                            JOINT LeftHandThumb1
                            {
                                OFFSET 2.126757 -2.416752 3.383459
                                CHANNELS 3 Zrotation Xrotation Yrotation
                                JOINT LeftHandThumb2
                                {
                                    OFFSET 3.212125 0.000001 0.000002
                                    CHANNELS 3 Zrotation Xrotation Yrotation
                                    JOINT LeftHandThumb3
                                    {
                                        OFFSET 2.745442 0.000003 0.000001
                                        CHANNELS 3 Zrotation Xrotation Yrotation
                                        End Site
                                        {
                                            OFFSET 2.793713 0.000000 0.000000
                                        }
                                    }
                                }
                            }
                            JOINT LeftHandIndex1
                            {
                                OFFSET 8.700338 0.000001 3.383464
                                CHANNELS 3 Zrotation Xrotation Yrotation
                                JOINT LeftHandIndex2
                                {
                                    OFFSET 4.833520 0.000002 -0.000004
                                    CHANNELS 3 Zrotation Xrotation Yrotation
                                    JOINT LeftHandIndex3
                                    {
                                        OFFSET 2.416750 -0.000005 0.000000
                                        CHANNELS 3 Zrotation Xrotation Yrotation
                                        End Site
                                        {
                                            OFFSET 2.459254 0.000000 0.000000
                                        }
                                    }
                                }
                            }
                            JOINT LeftHandMiddle1
                            {
                                OFFSET 8.700338 0.000004 1.121372
                                CHANNELS 3 Zrotation Xrotation Yrotation
                                JOINT LeftHandMiddle2
                                {
                                    OFFSET 5.316875 0.000004 -0.000004
                                    CHANNELS 3 Zrotation Xrotation Yrotation
                                    JOINT LeftHandMiddle3
                                    {
                                        OFFSET 2.900104 -0.000004 -0.000001
                                        CHANNELS 3 Zrotation Xrotation Yrotation
                                        End Site
                                        {
                                            OFFSET 2.951103 0.000000 0.000000
                                        }
                                    }
                                }
                            }
                            JOINT LeftHandRing1
                            {
                                OFFSET 8.216979 -0.000006 -1.121373
                                CHANNELS 3 Zrotation Xrotation Yrotation
                                JOINT LeftHandRing2
                                {
                                    OFFSET 4.833519 0.000003 -0.000003
                                    CHANNELS 3 Zrotation Xrotation Yrotation
                                    JOINT LeftHandRing3
                                    {
                                        OFFSET 2.416750 -0.000006 -0.000001
                                        CHANNELS 3 Zrotation Xrotation Yrotation
                                        End Site
                                        {
                                            OFFSET 2.459254 0.000000 0.000000
                                        }
                                    }
                                }
                            }
                            JOINT LeftHandPinky1
                            {
                                OFFSET 7.733624 -0.000004 -3.383464
                                CHANNELS 3 Zrotation Xrotation Yrotation
                                JOINT LeftHandPinky2
                                {
                                    OFFSET 3.866813 -0.000001 -0.000002
                                    CHANNELS 3 Zrotation Xrotation Yrotation
                                    JOINT LeftHandPinky3
                                    {
                                        OFFSET 1.933416 0.000007 -0.000001
                                        CHANNELS 3 Zrotation Xrotation Yrotation
                                        End Site
                                        {
                                            OFFSET 1.967405 0.000000 0.000000
                                        }
                                    }
                                }
                            }
                        }
                    }
                }
            }
            JOINT RightShoulder
            {
                OFFSET -4.036570 20.304846 -0.371914
                CHANNELS 3 Zrotation Xrotation Yrotation
                JOINT RightArm
                {
                    OFFSET -12.502551 -0.000003 0.000000
                    CHANNELS 3 Zrotation Xrotation Yrotation
                    JOINT RightForeArm
                    {
                        OFFSET -31.806898 0.000000 -0.000002
                        CHANNELS 3 Zrotation Xrotation Yrotation
                        JOINT RightHand
                        {
                            OFFSET -24.843227 0.000007 0.000003
                            CHANNELS 3 Zrotation Xrotation Yrotation
                            JOINT RightHandThumb1
                            {
                                OFFSET -2.126744 -2.416756 3.383466
                                CHANNELS 3 Zrotation Xrotation Yrotation
                                JOINT RightHandThumb2
                                {
                                    OFFSET -3.212128 -0.000004 0.000003
                                    CHANNELS 3 Zrotation Xrotation Yrotation
                                    JOINT RightHandThumb3
                                    {
                                        OFFSET -2.745442 0.000009 -0.000005
                                        CHANNELS 3 Zrotation Xrotation Yrotation
                                        End Site
                                        {
                                            OFFSET -2.793713 0.000000 0.000000
                                        }
                                    }
                                }
                            }
                            JOINT RightHandIndex1
                            {
                                OFFSET -8.700331 -0.000003 3.383460
                                CHANNELS 3 Zrotation Xrotation Yrotation
                                JOINT RightHandIndex2
                                {
                                    OFFSET -4.833517 -0.000006 -0.000003
                                    CHANNELS 3 Zrotation Xrotation Yrotation
                                    JOINT RightHandIndex3
                                    {
                                        OFFSET -2.416764 0.000007 0.000000
                                        CHANNELS 3 Zrotation Xrotation Yrotation
                                        End Site
                                        {
                                            OFFSET -2.459254 0.000000 0.000000
                                        }
                                    }
                                }
                            }
                            JOINT RightHandMiddle1
                            {
                                OFFSET -8.700334 0.000007 1.121377
                                CHANNELS 3 Zrotation Xrotation Yrotation
                                JOINT RightHandMiddle2
                                {
                                    OFFSET -5.316870 0.000000 -0.000001
                                    CHANNELS 3 Zrotation Xrotation Yrotation
                                    JOINT RightHandMiddle3
                                    {
                                        OFFSET -2.900106 -0.000007 -0.000003
                                        CHANNELS 3 Zrotation Xrotation Yrotation
                                        End Site
                                        {
                                            OFFSET -2.951103 0.000000 0.000000
                                        }
                                    }
                                }
                            }
                            JOINT RightHandRing1
                            {
                                OFFSET -8.216982 0.000008 -1.121375
                                CHANNELS 3 Zrotation Xrotation Yrotation
                                JOINT RightHandRing2
                                {
                                    OFFSET -4.833517 -0.000006 -0.000004
                                    CHANNELS 3 Zrotation Xrotation Yrotation
                                    JOINT RightHandRing3
                                    {
                                        OFFSET -2.416764 0.000007 0.000001
                                        CHANNELS 3 Zrotation Xrotation Yrotation
                                        End Site
                                        {
                                            OFFSET -2.459254 0.000000 0.000000
                                        }
                                    }
                                }
                            }
                            JOINT RightHandPinky1
                            {
                                OFFSET -7.733631 0.000011 -3.383461
                                CHANNELS 3 Zrotation Xrotation Yrotation
                                JOINT RightHandPinky2
                                {
                                    OFFSET -3.866817 0.000004 0.000001
                                    CHANNELS 3 Zrotation Xrotation Yrotation
                                    JOINT RightHandPinky3
                                    {
                                        OFFSET -1.933406 0.000003 0.000002
                                        CHANNELS 3 Zrotation Xrotation Yrotation
                                        End Site
                                        {
                                            OFFSET -1.967405 0.000000 0.000000
                                        }
                                    }
                                }
                            }
                        }
                    }
                }
            }
        }
    }
    JOINT LeftUpLeg
    {
        OFFSET 10.175827 0.000003 0.000004
        CHANNELS 3 Zrotation Xrotation Yrotation
        JOINT LeftLeg
        {
            OFFSET 0.000001 -42.882942 -0.000010
            CHANNELS 3 Zrotation Xrotation Yrotation
            JOINT LeftFoot
            {
                OFFSET 0.000001 -39.006767 0.000004
                CHANNELS 3 Zrotation Xrotation Yrotation
                JOINT LeftToeBase
                {
                    OFFSET 0.000000 -6.614288 15.263754
                    CHANNELS 3 Zrotation Xrotation Yrotation
                    End Site
                    {
                        OFFSET 0.000000 0.000000 4.070332
                    }
                }
            }
        }
    }
    JOINT RightUpLeg
    {
        OFFSET -10.175827 -0.000003 -0.000004
        CHANNELS 3 Zrotation Xrotation Yrotation
        JOINT RightLeg
        {
            OFFSET 0.000000 -42.882950 0.000010
            CHANNELS 3 Zrotation Xrotation Yrotation
            JOINT RightFoot
            {
                OFFSET -0.000002 -39.006771 -0.000009
                CHANNELS 3 Zrotation Xrotation Yrotation
                JOINT RightToeBase
                {
                    OFFSET 0.000002 -6.614288 15.263745
                    CHANNELS 3 Zrotation Xrotation Yrotation
                    End Site
                    {
                        OFFSET 0.000000 0.000000 4.070332
                    }
                }
            }
        }
    }
}
MOTION
Frames:    5
Frame Time:    0.002778
-2.134872    90.762344    233.762787    3.998393    0.834684    -8.033814    0.009028    5.730652    0.784477    0.045138    5.730651    0.780873    4.468280    -4.129429    2.914040    4.468278    -4.129433    2.914041    -4.600488    1.305045    -0.348957    -66.865608    13.616419    -2.627728    -16.378653    2.137356    -86.171204    28.718821    6.254465    11.576929    47.448212    38.866440    -34.355026    -35.000000    0.000001    -0.000002    -0.000000    0.000000    -0.000000    0.000006    10.000008    0.000006    -0.000000    0.000000    -0.000000    -0.000000    0.000000    -0.000000    -0.000000    0.000000    -0.000000    -0.000000    0.000000    -0.000000    -0.000000    0.000000    -0.000000    -0.000000    0.000000    -0.000000    -0.000000    0.000000    -0.000000    -0.000000    0.000000    -0.000000    0.000013    -9.999998    0.000001    -0.000000    0.000000    -0.000000    -0.000000    0.000000    -0.000000    -3.068179    2.587263    5.164999    57.873547    25.534912    9.070327    -13.950455    -10.986903    82.858688    -13.861479    6.625065    -24.574629    -47.448215    38.866440    34.355030    35.000004    -0.000005    0.000007    -0.000000    0.000000    -0.000000    -0.000001    10.000001    -0.000004    -0.000000    0.000000    -0.000000    -0.000000    0.000000    -0.000000    -0.000000    0.000000    -0.000000    -0.000000    0.000000    -0.000000    -0.000000    0.000000    -0.000000    -0.000000    0.000000    -0.000000    -0.000000    0.000000    -0.000000    -0.000000    0.000000    -0.000000    -0.000006    -9.999993    -0.000005    -0.000000    0.000000    -0.000000    -0.000000    0.000000    -0.000000    9.942044    -9.445397    -0.834250    0.000001    31.924711    0.000001    -20.831341    -27.038620    5.814293    -0.000000    -0.304404    0.000001    -14.849540    -19.126268    -8.240830    0.000001    45.357506    -0.000001    15.246763    -27.124063    -19.532690    -0.000000    -0.798755    0.000006    
-2.036279    90.711601    233.779999    3.986475    0.813602    -8.093702    0.009349    5.742462    0.802666    0.046739    5.742459    0.798928    4.464455    -4.124806    2.894990    4.464458    -4.124806    2.894990    -4.597710    1.292187    -0.375687    -66.839699    13.567582    -2.646365    -16.392975    2.172984    -86.170326    28.717602    6.255459    11.579473    47.448219    38.866440    -34.355038    -34.999996    0.000001    -0.000002    -0.000000    0.000000    -0.000000    0.000004    10.000001    -0.000005    -0.000000    0.000000    -0.000000    -0.000000    0.000000    -0.000000    -0.000000    0.000000    -0.000000    -0.000000    0.000000    -0.000000    -0.000000    0.000000    -0.000000    -0.000000    0.000000    -0.000000    -0.000000    0.000000    -0.000000    -0.000000    0.000000    -0.000000    0.000007    -9.999990    0.000004    -0.000000    0.000000    -0.000000    -0.000000    0.000000    -0.000000    -3.081868    2.561003    5.185802    57.915409    25.453604    9.051745    -13.835064    -10.966681    82.865387    -13.883813    6.630609    -24.561150    -47.448212    38.866428    34.355038    35.000000    -0.000001    0.000002    -0.000000    0.000000    -0.000000    0.000001    9.999999    0.000004    -0.000000    0.000000    -0.000000    -0.000000    0.000000    -0.000000    -0.000000    0.000000    -0.000000    -0.000000    0.000000    -0.000000    -0.000000    0.000000    -0.000000    -0.000000    0.000000    -0.000000    -0.000000    0.000000    -0.000000    -0.000000    0.000000    -0.000000    0.000003    -10.000004    0.000008    -0.000000    0.000000    -0.000000    -0.000000    0.000000    -0.000000    9.897645    -9.458790    -0.743230    0.000002    32.072632    -0.000001    -20.885780    -27.252333    5.753777    -0.000001    -0.225503    0.000001    -14.929954    -19.198887    -8.248011    0.000002    45.512341    -0.000001    15.300288    -27.138350    -19.440983    0.000000    -0.796025    0.000002    
-1.941337    90.660835    233.799622    3.971633    0.790189    -8.158598    0.009444    5.755310    0.826222    0.047216    5.755308    0.822436    4.467632    -4.120781    2.884862    4.467631    -4.120782    2.884862    -4.595279    1.286724    -0.389917    -66.809349    13.585772    -2.677812    -16.409828    2.160506    -86.181709    28.723022    6.256672    11.579460    47.448200    38.866421    -34.355015    -34.999996    0.000005    -0.000006    -0.000000    0.000000    -0.000000    0.000002    9.999998    -0.000000    -0.000000    0.000000    -0.000000    -0.000000    0.000000    -0.000000    -0.000000    0.000000    -0.000000    -0.000000    0.000000    -0.000000    -0.000000    0.000000    -0.000000    -0.000000    0.000000    -0.000000    -0.000000    0.000000    -0.000000    -0.000000    0.000000    -0.000000    -0.000000    -10.000001    -0.000005    -0.000000    0.000000    -0.000000    -0.000000    0.000000    -0.000000    -3.086749    2.549593    5.201293    57.934895    25.370262    9.036471    -13.728404    -10.935252    82.877632    -13.902061    6.630536    -24.535328    -47.448208    38.866428    34.355030    35.000008    -0.000003    0.000004    -0.000000    0.000000    -0.000000    -0.000006    10.000002    -0.000007    -0.000000    0.000000    -0.000000    -0.000000    0.000000    -0.000000    -0.000000    0.000000    -0.000000    -0.000000    0.000000    -0.000000    -0.000000    0.000000    -0.000000    -0.000000    0.000000    -0.000000    -0.000000    0.000000    -0.000000    -0.000000    0.000000    -0.000000    -0.000010    -9.999992    -0.000008    -0.000000    0.000000    -0.000000    -0.000000    0.000000    -0.000000    9.859186    -9.468096    -0.659875    0.000003    32.226315    -0.000002    -20.935612    -27.464003    5.692693    -0.000000    -0.144847    -0.000000    -15.000782    -19.265757    -8.243714    -0.000002    45.661812    0.000002    15.334528    -27.141441    -19.353241    0.000001    -0.810900    -0.000005    
-1.850722    90.611847    233.818146    3.957112    0.769817    -8.204620    0.008724    5.767395    0.842530    0.043615    5.767391    0.839027    4.475015    -4.116742    2.870867    4.475014    -4.116745    2.870867    -4.594755    1.285340    -0.410352    -66.756454    13.632888    -2.716996    -16.472780    2.124533    -86.203568    28.742287    6.267667    11.591027    47.448238    38.866432    -34.355053    -34.999989    -0.000005    0.000017    -0.000000    0.000000    -0.000000    0.000002    9.999998    -0.000005    -0.000000    0.000000    -0.000000    -0.000000    0.000000    -0.000000    -0.000000    0.000000    -0.000000    -0.000000    0.000000    -0.000000    -0.000000    0.000000    -0.000000    -0.000000    0.000000    -0.000000    -0.000000    0.000000    -0.000000    -0.000000    0.000000    -0.000000    0.000003    -9.999997    -0.000001    -0.000000    0.000000    -0.000000    -0.000000    0.000000    -0.000000    -3.079319    2.537079    5.214337    57.952728    25.289982    9.021254    -13.657670    -10.897828    82.868690    -13.929286    6.636435    -24.513561    -47.448204    38.866428    34.355030    35.000000    -0.000001    0.000003    -0.000000    0.000000    -0.000000    0.000002    10.000002    0.000002    -0.000000    0.000000    -0.000000    -0.000000    0.000000    -0.000000    -0.000000    0.000000    -0.000000    -0.000000    0.000000    -0.000000    -0.000000    0.000000    -0.000000    -0.000000    0.000000    -0.000000    -0.000000    0.000000    -0.000000    -0.000000    0.000000    -0.000000    0.000000    -9.999997    0.000003    -0.000000    0.000000    -0.000000    -0.000000    0.000000    -0.000000    9.827764    -9.489533    -0.597747    0.000000    32.387413    -0.000000    -20.996870    -27.661249    5.614733    -0.000000    -0.059549    -0.000000    -15.073138    -19.323792    -8.253682    -0.000002    45.800102    0.000001    15.378134    -27.153160    -19.268343    -0.000001    -0.836252    0.000006    
-1.759276    90.564362    233.834579    3.942250    0.754376    -8.250048    0.008861    5.780125    0.856996    0.044308    5.780125    0.853423    4.486248    -4.119921    2.869963    4.486246    -4.119920    2.869964    -4.603041    1.282461    -0.431248    -66.713493    13.642330    -2.746638    -16.531588    2.127527    -86.219223    28.747524    6.271555    11.596563    47.448212    38.866428    -34.355030    -35.000000    0.000001    0.000002    -0.000000    0.000000    -0.000000    -0.000003    9.999999    -0.000005    -0.000000    0.000000    -0.000000    -0.000000    0.000000    -0.000000    -0.000000    0.000000    -0.000000    -0.000000    0.000000    -0.000000    -0.000000    0.000000    -0.000000    -0.000000    0.000000    -0.000000    -0.000000    0.000000    -0.000000    -0.000000    0.000000    -0.000000    -0.000002    -9.999995    0.000002    -0.000000    0.000000    -0.000000    -0.000000    0.000000    -0.000000    -3.071140    2.522035    5.226045    57.978039    25.212816    9.004771    -13.598428    -10.857307    82.857857    -13.968184    6.654102    -24.511457    -47.448208    38.866432    34.355026    35.000000    -0.000003    0.000000    -0.000000    0.000000    -0.000000    -0.000000    9.999996    -0.000005    -0.000000    0.000000    -0.000000    -0.000000    0.000000    -0.000000    -0.000000    0.000000    -0.000000    -0.000000    0.000000    -0.000000    -0.000000    0.000000    -0.000000    -0.000000    0.000000    -0.000000    -0.000000    0.000000    -0.000000    -0.000000    0.000000    -0.000000    -0.000001    -10.000003    -0.000003    -0.000000    0.000000    -0.000000    -0.000000    0.000000    -0.000000    9.793518    -9.522860    -0.536942    0.000000    32.552940    -0.000000    -21.060593    -27.843010    5.548712    -0.000001    0.002192    0.000001    -15.142640    -19.379160    -8.260952    0.000001    45.925987    0.000005    15.434641    -27.172655    -19.186354    0.000000    -0.846118    -0.000004    
